<svg width="116" height="240" viewBox="0 0 116 240" fill="none" xmlns="http://www.w3.org/2000/svg">
<rect x="0.25" y="0.25" width="115.5" height="239.5" rx="7.75" fill="#FFF7EE"/>
<rect x="0.25" y="0.25" width="115.5" height="239.5" rx="7.75" stroke="#52736E" stroke-width="0.5"/>
<path d="M14.17 18.89C14.486 18.89 14.752 18.854 14.968 18.782C15.188 18.706 15.366 18.604 15.502 18.476C15.642 18.348 15.742 18.198 15.802 18.026C15.866 17.85 15.898 17.662 15.898 17.462C15.898 17.054 15.758 16.734 15.478 16.502C15.202 16.266 14.764 16.148 14.164 16.148H12.43V18.89H14.17ZM12.43 12.458V15.158H13.834C14.434 15.158 14.882 15.042 15.178 14.81C15.474 14.578 15.622 14.244 15.622 13.808C15.622 13.332 15.482 12.988 15.202 12.776C14.926 12.564 14.492 12.458 13.9 12.458H12.43ZM13.9 11.36C14.452 11.36 14.924 11.414 15.316 11.522C15.708 11.626 16.03 11.776 16.282 11.972C16.534 12.168 16.718 12.408 16.834 12.692C16.954 12.972 17.014 13.288 17.014 13.64C17.014 13.844 16.982 14.042 16.918 14.234C16.858 14.422 16.762 14.6 16.63 14.768C16.502 14.932 16.34 15.08 16.144 15.212C15.948 15.344 15.716 15.454 15.448 15.542C16.672 15.802 17.284 16.452 17.284 17.492C17.284 17.86 17.214 18.198 17.074 18.506C16.938 18.81 16.738 19.074 16.474 19.298C16.214 19.518 15.892 19.69 15.508 19.814C15.124 19.938 14.686 20 14.194 20H11.026V11.36H13.9ZM23.6687 13.88V20H22.8887C22.7167 20 22.6067 19.918 22.5587 19.754L22.4627 19.184C22.3347 19.32 22.1987 19.444 22.0547 19.556C21.9147 19.668 21.7647 19.764 21.6047 19.844C21.4447 19.924 21.2727 19.986 21.0887 20.03C20.9087 20.074 20.7147 20.096 20.5067 20.096C20.1707 20.096 19.8747 20.04 19.6187 19.928C19.3627 19.816 19.1467 19.658 18.9707 19.454C18.7987 19.25 18.6687 19.006 18.5807 18.722C18.4927 18.434 18.4487 18.118 18.4487 17.774V13.88H19.7387V17.774C19.7387 18.186 19.8327 18.506 20.0207 18.734C20.2127 18.962 20.5027 19.076 20.8907 19.076C21.1747 19.076 21.4387 19.012 21.6827 18.884C21.9307 18.752 22.1627 18.572 22.3787 18.344V13.88H23.6687ZM26.5792 13.88V20H25.2892V13.88H26.5792ZM26.7952 12.032C26.7952 12.148 26.7712 12.258 26.7232 12.362C26.6792 12.466 26.6172 12.558 26.5372 12.638C26.4572 12.714 26.3632 12.776 26.2552 12.824C26.1512 12.868 26.0392 12.89 25.9192 12.89C25.8032 12.89 25.6932 12.868 25.5892 12.824C25.4892 12.776 25.4012 12.714 25.3252 12.638C25.2492 12.558 25.1872 12.466 25.1392 12.362C25.0952 12.258 25.0732 12.148 25.0732 12.032C25.0732 11.912 25.0952 11.8 25.1392 11.696C25.1872 11.592 25.2492 11.502 25.3252 11.426C25.4012 11.346 25.4892 11.284 25.5892 11.24C25.6932 11.192 25.8032 11.168 25.9192 11.168C26.0392 11.168 26.1512 11.192 26.2552 11.24C26.3632 11.284 26.4572 11.346 26.5372 11.426C26.6172 11.502 26.6792 11.592 26.7232 11.696C26.7712 11.8 26.7952 11.912 26.7952 12.032ZM29.5141 11.12V20H28.2241V11.12H29.5141ZM35.0123 15.386C34.8323 15.154 34.6343 14.992 34.4183 14.9C34.2023 14.808 33.9683 14.762 33.7163 14.762C33.2123 14.762 32.8183 14.948 32.5343 15.32C32.2503 15.688 32.1083 16.234 32.1083 16.958C32.1083 17.334 32.1403 17.656 32.2043 17.924C32.2683 18.188 32.3603 18.404 32.4803 18.572C32.6003 18.74 32.7463 18.862 32.9183 18.938C33.0903 19.014 33.2843 19.052 33.5003 19.052C33.8283 19.052 34.1103 18.982 34.3463 18.842C34.5863 18.698 34.8083 18.496 35.0123 18.236V15.386ZM36.3023 11.12V20H35.5223C35.3503 20 35.2403 19.918 35.1923 19.754L35.0783 19.088C34.8223 19.388 34.5303 19.63 34.2023 19.814C33.8783 19.998 33.5003 20.09 33.0683 20.09C32.7243 20.09 32.4123 20.022 32.1323 19.886C31.8523 19.746 31.6123 19.544 31.4123 19.28C31.2123 19.016 31.0563 18.69 30.9443 18.302C30.8363 17.91 30.7823 17.462 30.7823 16.958C30.7823 16.502 30.8423 16.08 30.9623 15.692C31.0863 15.304 31.2623 14.968 31.4903 14.684C31.7183 14.396 31.9943 14.172 32.3183 14.012C32.6463 13.848 33.0123 13.766 33.4163 13.766C33.7763 13.766 34.0823 13.824 34.3343 13.94C34.5863 14.052 34.8123 14.21 35.0123 14.414V11.12H36.3023ZM39.2238 13.88V20H37.9338V13.88H39.2238ZM39.4398 12.032C39.4398 12.148 39.4158 12.258 39.3678 12.362C39.3238 12.466 39.2618 12.558 39.1818 12.638C39.1018 12.714 39.0078 12.776 38.8998 12.824C38.7958 12.868 38.6838 12.89 38.5638 12.89C38.4478 12.89 38.3378 12.868 38.2338 12.824C38.1338 12.776 38.0458 12.714 37.9698 12.638C37.8938 12.558 37.8318 12.466 37.7838 12.362C37.7398 12.258 37.7178 12.148 37.7178 12.032C37.7178 11.912 37.7398 11.8 37.7838 11.696C37.8318 11.592 37.8938 11.502 37.9698 11.426C38.0458 11.346 38.1338 11.284 38.2338 11.24C38.3378 11.192 38.4478 11.168 38.5638 11.168C38.6838 11.168 38.7958 11.192 38.8998 11.24C39.0078 11.284 39.1018 11.346 39.1818 11.426C39.2618 11.502 39.3238 11.592 39.3678 11.696C39.4158 11.8 39.4398 11.912 39.4398 12.032ZM42.0506 14.69C42.1826 14.554 42.3186 14.432 42.4586 14.324C42.6026 14.212 42.7546 14.116 42.9146 14.036C43.0746 13.956 43.2446 13.894 43.4246 13.85C43.6046 13.806 43.8006 13.784 44.0126 13.784C44.3486 13.784 44.6426 13.84 44.8946 13.952C45.1506 14.064 45.3646 14.222 45.5366 14.426C45.7126 14.63 45.8446 14.876 45.9326 15.164C46.0206 15.448 46.0646 15.762 46.0646 16.106V20H44.7806V16.106C44.7806 15.694 44.6846 15.374 44.4926 15.146C44.3046 14.918 44.0166 14.804 43.6286 14.804C43.3406 14.804 43.0726 14.87 42.8246 15.002C42.5806 15.134 42.3506 15.314 42.1346 15.542V20H40.8446V13.88H41.6246C41.8006 13.88 41.9126 13.962 41.9606 14.126L42.0506 14.69ZM49.7552 16.886C50.1552 16.886 50.4552 16.784 50.6552 16.58C50.8552 16.376 50.9552 16.11 50.9552 15.782C50.9552 15.446 50.8552 15.18 50.6552 14.984C50.4552 14.788 50.1552 14.69 49.7552 14.69C49.3592 14.69 49.0592 14.788 48.8552 14.984C48.6552 15.18 48.5552 15.446 48.5552 15.782C48.5552 15.942 48.5812 16.09 48.6332 16.226C48.6852 16.362 48.7612 16.48 48.8612 16.58C48.9612 16.676 49.0852 16.752 49.2332 16.808C49.3852 16.86 49.5592 16.886 49.7552 16.886ZM51.5492 20.3C51.5492 20.164 51.5092 20.056 51.4292 19.976C51.3532 19.892 51.2492 19.828 51.1172 19.784C50.9852 19.736 50.8312 19.702 50.6552 19.682C50.4792 19.658 50.2912 19.642 50.0912 19.634C49.8952 19.622 49.6932 19.612 49.4852 19.604C49.2812 19.592 49.0832 19.572 48.8912 19.544C48.6992 19.644 48.5412 19.764 48.4172 19.904C48.2972 20.044 48.2372 20.206 48.2372 20.39C48.2372 20.51 48.2672 20.622 48.3272 20.726C48.3912 20.83 48.4872 20.92 48.6152 20.996C48.7472 21.072 48.9132 21.132 49.1132 21.176C49.3172 21.22 49.5612 21.242 49.8452 21.242C50.4132 21.242 50.8392 21.154 51.1232 20.978C51.4072 20.802 51.5492 20.576 51.5492 20.3ZM52.8452 14.102V14.582C52.8452 14.742 52.7492 14.84 52.5572 14.876L51.9452 14.978C52.0492 15.21 52.1012 15.468 52.1012 15.752C52.1012 16.052 52.0412 16.324 51.9212 16.568C51.8052 16.812 51.6432 17.02 51.4352 17.192C51.2272 17.364 50.9792 17.496 50.6912 17.588C50.4032 17.68 50.0912 17.726 49.7552 17.726C49.6272 17.726 49.5012 17.72 49.3772 17.708C49.2572 17.692 49.1392 17.672 49.0232 17.648C48.9072 17.716 48.8212 17.788 48.7652 17.864C48.7092 17.94 48.6812 18.018 48.6812 18.098C48.6812 18.23 48.7392 18.328 48.8552 18.392C48.9712 18.456 49.1232 18.502 49.3112 18.53C49.5032 18.558 49.7212 18.576 49.9652 18.584C50.2092 18.592 50.4572 18.606 50.7092 18.626C50.9612 18.646 51.2092 18.68 51.4532 18.728C51.6972 18.772 51.9132 18.848 52.1012 18.956C52.2932 19.06 52.4472 19.202 52.5632 19.382C52.6792 19.562 52.7372 19.796 52.7372 20.084C52.7372 20.348 52.6712 20.606 52.5392 20.858C52.4072 21.11 52.2152 21.334 51.9632 21.53C51.7152 21.726 51.4112 21.882 51.0512 21.998C50.6912 22.118 50.2812 22.178 49.8212 22.178C49.3652 22.178 48.9672 22.134 48.6272 22.046C48.2912 21.958 48.0092 21.838 47.7812 21.686C47.5572 21.538 47.3892 21.366 47.2772 21.17C47.1692 20.974 47.1152 20.77 47.1152 20.558C47.1152 20.27 47.2052 20.024 47.3852 19.82C47.5692 19.616 47.8172 19.456 48.1292 19.34C47.9612 19.26 47.8252 19.15 47.7212 19.01C47.6212 18.87 47.5712 18.686 47.5712 18.458C47.5712 18.278 47.6372 18.09 47.7692 17.894C47.9012 17.698 48.0992 17.532 48.3632 17.396C48.0592 17.228 47.8192 17.006 47.6432 16.73C47.4672 16.45 47.3792 16.124 47.3792 15.752C47.3792 15.448 47.4372 15.174 47.5532 14.93C47.6732 14.686 47.8392 14.478 48.0512 14.306C48.2632 14.134 48.5132 14.002 48.8012 13.91C49.0932 13.818 49.4112 13.772 49.7552 13.772C50.2832 13.772 50.7432 13.882 51.1352 14.102H52.8452ZM58.1424 14.606C58.3944 14.358 58.6704 14.16 58.9704 14.012C59.2704 13.86 59.6204 13.784 60.0204 13.784C60.3564 13.784 60.6504 13.84 60.9024 13.952C61.1584 14.064 61.3724 14.222 61.5444 14.426C61.7204 14.63 61.8524 14.876 61.9404 15.164C62.0284 15.448 62.0724 15.762 62.0724 16.106V20H60.7884V16.106C60.7884 15.694 60.6924 15.374 60.5004 15.146C60.3124 14.918 60.0244 14.804 59.6364 14.804C59.3484 14.804 59.0804 14.87 58.8324 15.002C58.5884 15.134 58.3584 15.314 58.1424 15.542V20H56.8524V11.12H58.1424V14.606ZM67.593 16.25C67.593 16.034 67.561 15.834 67.497 15.65C67.437 15.462 67.347 15.3 67.227 15.164C67.107 15.024 66.957 14.916 66.777 14.84C66.601 14.76 66.397 14.72 66.165 14.72C65.697 14.72 65.329 14.854 65.061 15.122C64.793 15.39 64.623 15.766 64.551 16.25H67.593ZM64.515 17.042C64.531 17.39 64.585 17.692 64.677 17.948C64.769 18.2 64.891 18.41 65.043 18.578C65.199 18.746 65.383 18.872 65.595 18.956C65.811 19.036 66.051 19.076 66.315 19.076C66.567 19.076 66.785 19.048 66.969 18.992C67.153 18.932 67.313 18.868 67.449 18.8C67.585 18.728 67.701 18.664 67.797 18.608C67.893 18.548 67.981 18.518 68.061 18.518C68.165 18.518 68.245 18.558 68.301 18.638L68.667 19.112C68.515 19.292 68.343 19.444 68.151 19.568C67.959 19.692 67.755 19.794 67.539 19.874C67.323 19.95 67.101 20.004 66.873 20.036C66.645 20.072 66.423 20.09 66.207 20.09C65.783 20.09 65.389 20.02 65.025 19.88C64.665 19.736 64.351 19.526 64.083 19.25C63.819 18.974 63.611 18.632 63.459 18.224C63.311 17.816 63.237 17.346 63.237 16.814C63.237 16.39 63.303 15.994 63.435 15.626C63.571 15.258 63.763 14.938 64.011 14.666C64.263 14.394 64.567 14.18 64.923 14.024C65.283 13.864 65.689 13.784 66.141 13.784C66.517 13.784 66.865 13.846 67.185 13.97C67.505 14.09 67.781 14.268 68.013 14.504C68.245 14.74 68.425 15.03 68.553 15.374C68.685 15.714 68.751 16.102 68.751 16.538C68.751 16.738 68.729 16.872 68.685 16.94C68.641 17.008 68.561 17.042 68.445 17.042H64.515ZM71.298 13.88V20H70.008V13.88H71.298ZM71.514 12.032C71.514 12.148 71.49 12.258 71.442 12.362C71.398 12.466 71.336 12.558 71.256 12.638C71.176 12.714 71.082 12.776 70.974 12.824C70.87 12.868 70.758 12.89 70.638 12.89C70.522 12.89 70.412 12.868 70.308 12.824C70.208 12.776 70.12 12.714 70.044 12.638C69.968 12.558 69.906 12.466 69.858 12.362C69.814 12.258 69.792 12.148 69.792 12.032C69.792 11.912 69.814 11.8 69.858 11.696C69.906 11.592 69.968 11.502 70.044 11.426C70.12 11.346 70.208 11.284 70.308 11.24C70.412 11.192 70.522 11.168 70.638 11.168C70.758 11.168 70.87 11.192 70.974 11.24C71.082 11.284 71.176 11.346 71.256 11.426C71.336 11.502 71.398 11.592 71.442 11.696C71.49 11.8 71.514 11.912 71.514 12.032ZM75.1028 16.886C75.5028 16.886 75.8028 16.784 76.0028 16.58C76.2028 16.376 76.3028 16.11 76.3028 15.782C76.3028 15.446 76.2028 15.18 76.0028 14.984C75.8028 14.788 75.5028 14.69 75.1028 14.69C74.7068 14.69 74.4068 14.788 74.2028 14.984C74.0028 15.18 73.9028 15.446 73.9028 15.782C73.9028 15.942 73.9288 16.09 73.9808 16.226C74.0328 16.362 74.1088 16.48 74.2088 16.58C74.3088 16.676 74.4328 16.752 74.5808 16.808C74.7328 16.86 74.9068 16.886 75.1028 16.886ZM76.8968 20.3C76.8968 20.164 76.8568 20.056 76.7768 19.976C76.7008 19.892 76.5968 19.828 76.4648 19.784C76.3328 19.736 76.1788 19.702 76.0028 19.682C75.8268 19.658 75.6388 19.642 75.4388 19.634C75.2428 19.622 75.0408 19.612 74.8328 19.604C74.6288 19.592 74.4308 19.572 74.2388 19.544C74.0468 19.644 73.8888 19.764 73.7648 19.904C73.6448 20.044 73.5848 20.206 73.5848 20.39C73.5848 20.51 73.6148 20.622 73.6748 20.726C73.7388 20.83 73.8348 20.92 73.9628 20.996C74.0948 21.072 74.2608 21.132 74.4608 21.176C74.6648 21.22 74.9088 21.242 75.1928 21.242C75.7608 21.242 76.1868 21.154 76.4708 20.978C76.7548 20.802 76.8968 20.576 76.8968 20.3ZM78.1928 14.102V14.582C78.1928 14.742 78.0968 14.84 77.9048 14.876L77.2928 14.978C77.3968 15.21 77.4488 15.468 77.4488 15.752C77.4488 16.052 77.3888 16.324 77.2688 16.568C77.1528 16.812 76.9908 17.02 76.7828 17.192C76.5748 17.364 76.3268 17.496 76.0388 17.588C75.7508 17.68 75.4388 17.726 75.1028 17.726C74.9748 17.726 74.8488 17.72 74.7248 17.708C74.6048 17.692 74.4868 17.672 74.3708 17.648C74.2548 17.716 74.1688 17.788 74.1128 17.864C74.0568 17.94 74.0288 18.018 74.0288 18.098C74.0288 18.23 74.0868 18.328 74.2028 18.392C74.3188 18.456 74.4708 18.502 74.6588 18.53C74.8508 18.558 75.0688 18.576 75.3128 18.584C75.5568 18.592 75.8048 18.606 76.0568 18.626C76.3088 18.646 76.5568 18.68 76.8008 18.728C77.0448 18.772 77.2608 18.848 77.4488 18.956C77.6408 19.06 77.7948 19.202 77.9108 19.382C78.0268 19.562 78.0848 19.796 78.0848 20.084C78.0848 20.348 78.0188 20.606 77.8868 20.858C77.7548 21.11 77.5628 21.334 77.3108 21.53C77.0628 21.726 76.7588 21.882 76.3988 21.998C76.0388 22.118 75.6288 22.178 75.1688 22.178C74.7128 22.178 74.3148 22.134 73.9748 22.046C73.6388 21.958 73.3568 21.838 73.1288 21.686C72.9048 21.538 72.7368 21.366 72.6248 21.17C72.5168 20.974 72.4628 20.77 72.4628 20.558C72.4628 20.27 72.5528 20.024 72.7328 19.82C72.9168 19.616 73.1648 19.456 73.4768 19.34C73.3088 19.26 73.1728 19.15 73.0688 19.01C72.9688 18.87 72.9188 18.686 72.9188 18.458C72.9188 18.278 72.9848 18.09 73.1168 17.894C73.2488 17.698 73.4468 17.532 73.7108 17.396C73.4068 17.228 73.1668 17.006 72.9908 16.73C72.8148 16.45 72.7268 16.124 72.7268 15.752C72.7268 15.448 72.7848 15.174 72.9008 14.93C73.0208 14.686 73.1868 14.478 73.3988 14.306C73.6108 14.134 73.8608 14.002 74.1488 13.91C74.4408 13.818 74.7588 13.772 75.1028 13.772C75.6308 13.772 76.0908 13.882 76.4828 14.102H78.1928ZM80.5018 14.606C80.7538 14.358 81.0298 14.16 81.3298 14.012C81.6298 13.86 81.9798 13.784 82.3798 13.784C82.7158 13.784 83.0098 13.84 83.2618 13.952C83.5178 14.064 83.7318 14.222 83.9038 14.426C84.0798 14.63 84.2118 14.876 84.2998 15.164C84.3878 15.448 84.4318 15.762 84.4318 16.106V20H83.1478V16.106C83.1478 15.694 83.0518 15.374 82.8598 15.146C82.6718 14.918 82.3838 14.804 81.9958 14.804C81.7078 14.804 81.4398 14.87 81.1918 15.002C80.9478 15.134 80.7178 15.314 80.5018 15.542V20H79.2118V11.12H80.5018V14.606ZM87.8183 20.096C87.3103 20.096 86.9183 19.954 86.6423 19.67C86.3703 19.382 86.2343 18.978 86.2343 18.458V14.894H85.5623C85.4903 14.894 85.4283 14.872 85.3763 14.828C85.3243 14.78 85.2983 14.71 85.2983 14.618V14.096L86.2883 13.952L86.5703 12.182C86.5903 12.114 86.6243 12.06 86.6723 12.02C86.7203 11.976 86.7843 11.954 86.8643 11.954H87.5243V13.964H89.2223V14.894H87.5243V18.368C87.5243 18.588 87.5783 18.756 87.6863 18.872C87.7943 18.988 87.9383 19.046 88.1183 19.046C88.2183 19.046 88.3043 19.034 88.3763 19.01C88.4483 18.982 88.5103 18.954 88.5623 18.926C88.6143 18.894 88.6583 18.866 88.6943 18.842C88.7343 18.814 88.7723 18.8 88.8083 18.8C88.8803 18.8 88.9383 18.84 88.9823 18.92L89.3663 19.55C89.1663 19.726 88.9303 19.862 88.6583 19.958C88.3863 20.05 88.1063 20.096 87.8183 20.096Z" fill="#595959"/>
<rect x="10" y="24" width="28" height="28" fill="#E699AB"/>
<path d="M51.456 38.223C51.302 38.3037 51.1333 38.3733 50.95 38.432C50.774 38.4907 50.5907 38.5457 50.4 38.597C50.5907 38.641 50.774 38.696 50.95 38.762C51.1333 38.8207 51.302 38.8903 51.456 38.971L55.9 41.215C56.0613 41.2957 56.175 41.391 56.241 41.501C56.307 41.611 56.34 41.7357 56.34 41.875V43.569L47.716 39.081V38.102L56.34 33.614V35.319C56.34 35.451 56.307 35.572 56.241 35.682C56.175 35.792 56.0613 35.8873 55.9 35.968L51.456 38.223ZM68.4752 36.012C68.8566 35.9313 69.2196 35.8727 69.5642 35.836C69.9162 35.7993 70.2536 35.781 70.5762 35.781C71.4049 35.781 72.1346 35.9057 72.7652 36.155C73.4032 36.397 73.9349 36.7343 74.3602 37.167C74.7929 37.5997 75.1156 38.1093 75.3282 38.696C75.5482 39.2753 75.6582 39.906 75.6582 40.588C75.6582 41.4313 75.5116 42.1977 75.2182 42.887C74.9249 43.5763 74.5179 44.1667 73.9972 44.658C73.4766 45.142 72.8606 45.516 72.1492 45.78C71.4452 46.044 70.6826 46.176 69.8612 46.176C69.3772 46.176 68.9152 46.1283 68.4752 46.033C68.0426 45.9377 67.6356 45.8093 67.2542 45.648C66.8729 45.4793 66.5209 45.2887 66.1982 45.076C65.8756 44.856 65.5859 44.6287 65.3292 44.394L66.0552 43.382C66.2092 43.162 66.4146 43.052 66.6712 43.052C66.8326 43.052 67.0086 43.1107 67.1992 43.228C67.3899 43.3453 67.6099 43.4737 67.8592 43.613C68.1159 43.745 68.4166 43.8697 68.7612 43.987C69.1059 44.1043 69.5166 44.163 69.9932 44.163C70.5139 44.163 70.9796 44.0787 71.3902 43.91C71.8009 43.7413 72.1456 43.5067 72.4242 43.206C72.7102 42.898 72.9266 42.5313 73.0732 42.106C73.2199 41.6807 73.2932 41.215 73.2932 40.709C73.2932 40.247 73.2236 39.8327 73.0842 39.466C72.9522 39.0993 72.7506 38.7877 72.4792 38.531C72.2152 38.2743 71.8816 38.08 71.4782 37.948C71.0749 37.8087 70.6092 37.739 70.0812 37.739C69.6926 37.739 69.2929 37.772 68.8822 37.838C68.4789 37.904 68.0682 38.0067 67.6502 38.146L66.1762 37.728L67.4742 30.16H75.1412V31.183C75.1412 31.5203 75.0349 31.7953 74.8222 32.008C74.6096 32.2207 74.2539 32.327 73.7552 32.327H69.1132L68.4752 36.012Z" fill="#595959"/>
<rect x="10" y="54" width="28" height="28" fill="#5800E5"/>
<path d="M50.235 66.012C50.6163 65.9313 50.9793 65.8727 51.324 65.836C51.676 65.7993 52.0133 65.781 52.336 65.781C53.1647 65.781 53.8943 65.9057 54.525 66.155C55.163 66.397 55.6947 66.7343 56.12 67.167C56.5527 67.5997 56.8753 68.1093 57.088 68.696C57.308 69.2753 57.418 69.906 57.418 70.588C57.418 71.4313 57.2713 72.1977 56.978 72.887C56.6847 73.5763 56.2777 74.1667 55.757 74.658C55.2363 75.142 54.6203 75.516 53.909 75.78C53.205 76.044 52.4423 76.176 51.621 76.176C51.137 76.176 50.675 76.1283 50.235 76.033C49.8023 75.9377 49.3953 75.8093 49.014 75.648C48.6327 75.4793 48.2807 75.2887 47.958 75.076C47.6353 74.856 47.3457 74.6287 47.089 74.394L47.815 73.382C47.969 73.162 48.1743 73.052 48.431 73.052C48.5923 73.052 48.7683 73.1107 48.959 73.228C49.1497 73.3453 49.3697 73.4737 49.619 73.613C49.8757 73.745 50.1763 73.8697 50.521 73.987C50.8657 74.1043 51.2763 74.163 51.753 74.163C52.2737 74.163 52.7393 74.0787 53.15 73.91C53.5607 73.7413 53.9053 73.5067 54.184 73.206C54.47 72.898 54.6863 72.5313 54.833 72.106C54.9797 71.6807 55.053 71.215 55.053 70.709C55.053 70.247 54.9833 69.8327 54.844 69.466C54.712 69.0993 54.5103 68.7877 54.239 68.531C53.975 68.2743 53.6413 68.08 53.238 67.948C52.8347 67.8087 52.369 67.739 51.841 67.739C51.4523 67.739 51.0527 67.772 50.642 67.838C50.2387 67.904 49.828 68.0067 49.41 68.146L47.936 67.728L49.234 60.16H56.901V61.183C56.901 61.5203 56.7947 61.7953 56.582 62.008C56.3693 62.2207 56.0137 62.327 55.515 62.327H50.873L50.235 66.012ZM60.0707 68.377H65.6477V70.379H60.0707V68.377ZM78.2443 74.207V76H69.6093V74.207H72.9093V64.285C72.9093 63.933 72.9203 63.5737 72.9423 63.207L70.4013 65.352C70.2913 65.44 70.1776 65.4987 70.0603 65.528C69.9503 65.55 69.8439 65.55 69.7413 65.528C69.6459 65.506 69.5579 65.473 69.4773 65.429C69.4039 65.3777 69.3453 65.3227 69.3013 65.264L68.5643 64.23L73.3383 60.127H75.2633V74.207H78.2443ZM91.864 68.08C91.864 69.466 91.7137 70.665 91.413 71.677C91.1197 72.689 90.7127 73.5287 90.192 74.196C89.6713 74.8633 89.059 75.3583 88.355 75.681C87.651 76.0037 86.892 76.165 86.078 76.165C85.264 76.165 84.505 76.0037 83.801 75.681C83.097 75.3583 82.4847 74.8633 81.964 74.196C81.4507 73.5287 81.0473 72.689 80.754 71.677C80.4607 70.665 80.314 69.466 80.314 68.08C80.314 66.694 80.4607 65.495 80.754 64.483C81.0473 63.4637 81.4507 62.624 81.964 61.964C82.4847 61.2967 83.097 60.8017 83.801 60.479C84.505 60.149 85.264 59.984 86.078 59.984C86.892 59.984 87.651 60.149 88.355 60.479C89.059 60.8017 89.6713 61.2967 90.192 61.964C90.7127 62.624 91.1197 63.4637 91.413 64.483C91.7137 65.495 91.864 66.694 91.864 68.08ZM89.422 68.08C89.422 66.9067 89.3267 65.9313 89.136 65.154C88.9527 64.3693 88.707 63.7423 88.399 63.273C88.091 62.8037 87.7353 62.47 87.332 62.272C86.9287 62.074 86.5107 61.975 86.078 61.975C85.638 61.975 85.2163 62.074 84.813 62.272C84.417 62.47 84.065 62.8037 83.757 63.273C83.449 63.7423 83.2033 64.3693 83.02 65.154C82.8367 65.9313 82.745 66.9067 82.745 68.08C82.745 69.2533 82.8367 70.2323 83.02 71.017C83.2033 71.7943 83.449 72.4177 83.757 72.887C84.065 73.3563 84.417 73.69 84.813 73.888C85.2163 74.086 85.638 74.185 86.078 74.185C86.5107 74.185 86.9287 74.086 87.332 73.888C87.7353 73.69 88.091 73.3563 88.399 72.887C88.707 72.4177 88.9527 71.7943 89.136 71.017C89.3267 70.2323 89.422 69.2533 89.422 68.08Z" fill="#595959"/>
<rect x="10" y="84" width="28" height="28" fill="#6E6100"/>
<path d="M57.297 104.207V106H48.662V104.207H51.962V94.285C51.962 93.933 51.973 93.5737 51.995 93.207L49.454 95.352C49.344 95.44 49.2303 95.4987 49.113 95.528C49.003 95.55 48.8967 95.55 48.794 95.528C48.6987 95.506 48.6107 95.473 48.53 95.429C48.4567 95.3777 48.398 95.3227 48.354 95.264L47.617 94.23L52.391 90.127H54.316V104.207H57.297ZM70.0587 104.207V106H61.4237V104.207H64.7237V94.285C64.7237 93.933 64.7347 93.5737 64.7567 93.207L62.2157 95.352C62.1057 95.44 61.9921 95.4987 61.8747 95.528C61.7647 95.55 61.6584 95.55 61.5557 95.528C61.4604 95.506 61.3724 95.473 61.2917 95.429C61.2184 95.3777 61.1597 95.3227 61.1157 95.264L60.3787 94.23L65.1527 90.127H67.0777V104.207H70.0587ZM72.8324 98.377H78.4094V100.379H72.8324V98.377ZM91.006 104.207V106H82.371V104.207H85.671V94.285C85.671 93.933 85.682 93.5737 85.704 93.207L83.163 95.352C83.053 95.44 82.9393 95.4987 82.822 95.528C82.712 95.55 82.6057 95.55 82.503 95.528C82.4077 95.506 82.3197 95.473 82.239 95.429C82.1657 95.3777 82.107 95.3227 82.063 95.264L81.326 94.23L86.1 90.127H88.025V104.207H91.006ZM96.7057 96.012C97.087 95.9313 97.45 95.8727 97.7947 95.836C98.1467 95.7993 98.484 95.781 98.8067 95.781C99.6354 95.781 100.365 95.9057 100.996 96.155C101.634 96.397 102.165 96.7343 102.591 97.167C103.023 97.5997 103.346 98.1093 103.559 98.696C103.779 99.2753 103.889 99.906 103.889 100.588C103.889 101.431 103.742 102.198 103.449 102.887C103.155 103.576 102.748 104.167 102.228 104.658C101.707 105.142 101.091 105.516 100.38 105.78C99.6757 106.044 98.913 106.176 98.0917 106.176C97.6077 106.176 97.1457 106.128 96.7057 106.033C96.273 105.938 95.866 105.809 95.4847 105.648C95.1034 105.479 94.7514 105.289 94.4287 105.076C94.106 104.856 93.8164 104.629 93.5597 104.394L94.2857 103.382C94.4397 103.162 94.645 103.052 94.9017 103.052C95.063 103.052 95.239 103.111 95.4297 103.228C95.6204 103.345 95.8404 103.474 96.0897 103.613C96.3464 103.745 96.647 103.87 96.9917 103.987C97.3364 104.104 97.747 104.163 98.2237 104.163C98.7444 104.163 99.21 104.079 99.6207 103.91C100.031 103.741 100.376 103.507 100.655 103.206C100.941 102.898 101.157 102.531 101.304 102.106C101.45 101.681 101.524 101.215 101.524 100.709C101.524 100.247 101.454 99.8327 101.315 99.466C101.183 99.0993 100.981 98.7877 100.71 98.531C100.446 98.2743 100.112 98.08 99.7087 97.948C99.3054 97.8087 98.8397 97.739 98.3117 97.739C97.923 97.739 97.5234 97.772 97.1127 97.838C96.7094 97.904 96.2987 98.0067 95.8807 98.146L94.4067 97.728L95.7047 90.16H103.372V91.183C103.372 91.5203 103.265 91.7953 103.053 92.008C102.84 92.2207 102.484 92.327 101.986 92.327H97.3437L96.7057 96.012Z" fill="#595959"/>
<rect x="10" y="114" width="28" height="28" fill="#E5CA00"/>
<path d="M57.297 134.207V136H48.662V134.207H51.962V124.285C51.962 123.933 51.973 123.574 51.995 123.207L49.454 125.352C49.344 125.44 49.2303 125.499 49.113 125.528C49.003 125.55 48.8967 125.55 48.794 125.528C48.6987 125.506 48.6107 125.473 48.53 125.429C48.4567 125.378 48.398 125.323 48.354 125.264L47.617 124.23L52.391 120.127H54.316V134.207H57.297ZM65.1197 134.218C65.5964 134.218 66.0327 134.141 66.4287 133.987C66.8247 133.826 67.1621 133.606 67.4407 133.327C67.7267 133.048 67.9467 132.718 68.1007 132.337C68.2547 131.956 68.3317 131.541 68.3317 131.094C68.3317 130.61 68.2547 130.177 68.1007 129.796C67.9541 129.407 67.7414 129.081 67.4627 128.817C67.1914 128.553 66.8614 128.351 66.4727 128.212C66.0914 128.065 65.6697 127.992 65.2077 127.992C64.7311 127.992 64.2984 128.073 63.9097 128.234C63.5284 128.395 63.2021 128.615 62.9307 128.894C62.6594 129.173 62.4504 129.499 62.3037 129.873C62.1571 130.247 62.0837 130.643 62.0837 131.061C62.0837 131.53 62.1497 131.959 62.2817 132.348C62.4137 132.737 62.6081 133.07 62.8647 133.349C63.1214 133.62 63.4367 133.833 63.8107 133.987C64.1921 134.141 64.6284 134.218 65.1197 134.218ZM64.2507 125.99C64.1334 126.137 64.0197 126.276 63.9097 126.408C63.8071 126.54 63.7044 126.672 63.6017 126.804C63.9391 126.613 64.3094 126.463 64.7127 126.353C65.1161 126.243 65.5487 126.188 66.0107 126.188C66.6267 126.188 67.2171 126.291 67.7817 126.496C68.3464 126.694 68.8414 126.995 69.2667 127.398C69.6994 127.794 70.0441 128.289 70.3007 128.883C70.5574 129.47 70.6857 130.148 70.6857 130.918C70.6857 131.651 70.5501 132.337 70.2787 132.975C70.0147 133.613 69.6407 134.17 69.1567 134.647C68.6727 135.116 68.0897 135.49 67.4077 135.769C66.7331 136.04 65.9851 136.176 65.1637 136.176C64.3424 136.176 63.6017 136.044 62.9417 135.78C62.2817 135.516 61.7171 135.146 61.2477 134.669C60.7857 134.185 60.4301 133.606 60.1807 132.931C59.9314 132.256 59.8067 131.505 59.8067 130.676C59.8067 129.957 59.9607 129.206 60.2687 128.421C60.5767 127.636 61.0534 126.811 61.6987 125.946L65.5927 120.721C65.7101 120.567 65.8787 120.435 66.0987 120.325C66.3261 120.215 66.5791 120.16 66.8577 120.16H68.9477L64.2507 125.99ZM72.8324 128.377H78.4094V130.379H72.8324V128.377ZM90.533 133.767C90.7897 133.767 90.9913 133.844 91.138 133.998C91.2847 134.145 91.358 134.335 91.358 134.57V136H80.644V135.197C80.644 135.036 80.677 134.867 80.743 134.691C80.809 134.515 80.9153 134.354 81.062 134.207L85.99 129.268C86.408 128.85 86.7783 128.45 87.101 128.069C87.431 127.688 87.7097 127.306 87.937 126.925C88.1717 126.544 88.3477 126.159 88.465 125.77C88.5897 125.374 88.652 124.96 88.652 124.527C88.652 124.109 88.586 123.742 88.454 123.427C88.3293 123.104 88.1533 122.84 87.926 122.635C87.706 122.422 87.4383 122.265 87.123 122.162C86.815 122.052 86.474 121.997 86.1 121.997C85.7407 121.997 85.407 122.048 85.099 122.151C84.7983 122.254 84.527 122.397 84.285 122.58C84.0503 122.763 83.8523 122.983 83.691 123.24C83.537 123.489 83.4233 123.764 83.35 124.065C83.24 124.366 83.097 124.567 82.921 124.67C82.7523 124.773 82.503 124.795 82.173 124.736L80.93 124.516C81.04 123.768 81.2453 123.112 81.546 122.547C81.854 121.982 82.239 121.513 82.701 121.139C83.163 120.758 83.691 120.472 84.285 120.281C84.8863 120.083 85.5353 119.984 86.232 119.984C86.936 119.984 87.5813 120.09 88.168 120.303C88.762 120.508 89.2717 120.805 89.697 121.194C90.1297 121.575 90.467 122.041 90.709 122.591C90.951 123.141 91.072 123.761 91.072 124.45C91.072 125.037 90.984 125.579 90.808 126.078C90.6393 126.577 90.4083 127.053 90.115 127.508C89.8217 127.963 89.477 128.406 89.081 128.839C88.6923 129.264 88.2817 129.697 87.849 130.137L84.021 134.053C84.3363 133.965 84.6517 133.895 84.967 133.844C85.2897 133.793 85.594 133.767 85.88 133.767H90.533ZM104.626 128.08C104.626 129.466 104.475 130.665 104.175 131.677C103.881 132.689 103.474 133.529 102.954 134.196C102.433 134.863 101.821 135.358 101.117 135.681C100.413 136.004 99.6537 136.165 98.8397 136.165C98.0257 136.165 97.2667 136.004 96.5627 135.681C95.8587 135.358 95.2464 134.863 94.7257 134.196C94.2124 133.529 93.809 132.689 93.5157 131.677C93.2224 130.665 93.0757 129.466 93.0757 128.08C93.0757 126.694 93.2224 125.495 93.5157 124.483C93.809 123.464 94.2124 122.624 94.7257 121.964C95.2464 121.297 95.8587 120.802 96.5627 120.479C97.2667 120.149 98.0257 119.984 98.8397 119.984C99.6537 119.984 100.413 120.149 101.117 120.479C101.821 120.802 102.433 121.297 102.954 121.964C103.474 122.624 103.881 123.464 104.175 124.483C104.475 125.495 104.626 126.694 104.626 128.08ZM102.184 128.08C102.184 126.907 102.088 125.931 101.898 125.154C101.714 124.369 101.469 123.742 101.161 123.273C100.853 122.804 100.497 122.47 100.094 122.272C99.6904 122.074 99.2724 121.975 98.8397 121.975C98.3997 121.975 97.978 122.074 97.5747 122.272C97.1787 122.47 96.8267 122.804 96.5187 123.273C96.2107 123.742 95.965 124.369 95.7817 125.154C95.5984 125.931 95.5067 126.907 95.5067 128.08C95.5067 129.253 95.5984 130.232 95.7817 131.017C95.965 131.794 96.2107 132.418 96.5187 132.887C96.8267 133.356 97.1787 133.69 97.5747 133.888C97.978 134.086 98.3997 134.185 98.8397 134.185C99.2724 134.185 99.6904 134.086 100.094 133.888C100.497 133.69 100.853 133.356 101.161 132.887C101.469 132.418 101.714 131.794 101.898 131.017C102.088 130.232 102.184 129.253 102.184 128.08Z" fill="#595959"/>
<rect x="10" y="144" width="28" height="28" fill="#2BE57F"/>
<path d="M56.824 163.767C57.0807 163.767 57.2823 163.844 57.429 163.998C57.5757 164.145 57.649 164.335 57.649 164.57V166H46.935V165.197C46.935 165.036 46.968 164.867 47.034 164.691C47.1 164.515 47.2063 164.354 47.353 164.207L52.281 159.268C52.699 158.85 53.0693 158.45 53.392 158.069C53.722 157.688 54.0007 157.306 54.228 156.925C54.4627 156.544 54.6387 156.159 54.756 155.77C54.8807 155.374 54.943 154.96 54.943 154.527C54.943 154.109 54.877 153.742 54.745 153.427C54.6203 153.104 54.4443 152.84 54.217 152.635C53.997 152.422 53.7293 152.265 53.414 152.162C53.106 152.052 52.765 151.997 52.391 151.997C52.0317 151.997 51.698 152.048 51.39 152.151C51.0893 152.254 50.818 152.397 50.576 152.58C50.3413 152.763 50.1433 152.983 49.982 153.24C49.828 153.489 49.7143 153.764 49.641 154.065C49.531 154.366 49.388 154.567 49.212 154.67C49.0433 154.773 48.794 154.795 48.464 154.736L47.221 154.516C47.331 153.768 47.5363 153.112 47.837 152.547C48.145 151.982 48.53 151.513 48.992 151.139C49.454 150.758 49.982 150.472 50.576 150.281C51.1773 150.083 51.8263 149.984 52.523 149.984C53.227 149.984 53.8723 150.09 54.459 150.303C55.053 150.508 55.5627 150.805 55.988 151.194C56.4207 151.575 56.758 152.041 57 152.591C57.242 153.141 57.363 153.761 57.363 154.45C57.363 155.037 57.275 155.579 57.099 156.078C56.9303 156.577 56.6993 157.053 56.406 157.508C56.1127 157.963 55.768 158.406 55.372 158.839C54.9833 159.264 54.5727 159.697 54.14 160.137L50.312 164.053C50.6273 163.965 50.9427 163.895 51.258 163.844C51.5807 163.793 51.885 163.767 52.171 163.767H56.824ZM70.0587 164.207V166H61.4237V164.207H64.7237V154.285C64.7237 153.933 64.7347 153.574 64.7567 153.207L62.2157 155.352C62.1057 155.44 61.9921 155.499 61.8747 155.528C61.7647 155.55 61.6584 155.55 61.5557 155.528C61.4604 155.506 61.3724 155.473 61.2917 155.429C61.2184 155.378 61.1597 155.323 61.1157 155.264L60.3787 154.23L65.1527 150.127H67.0777V164.207H70.0587ZM72.8324 158.377H78.4094V160.379H72.8324V158.377ZM90.533 163.767C90.7897 163.767 90.9913 163.844 91.138 163.998C91.2847 164.145 91.358 164.335 91.358 164.57V166H80.644V165.197C80.644 165.036 80.677 164.867 80.743 164.691C80.809 164.515 80.9153 164.354 81.062 164.207L85.99 159.268C86.408 158.85 86.7783 158.45 87.101 158.069C87.431 157.688 87.7097 157.306 87.937 156.925C88.1717 156.544 88.3477 156.159 88.465 155.77C88.5897 155.374 88.652 154.96 88.652 154.527C88.652 154.109 88.586 153.742 88.454 153.427C88.3293 153.104 88.1533 152.84 87.926 152.635C87.706 152.422 87.4383 152.265 87.123 152.162C86.815 152.052 86.474 151.997 86.1 151.997C85.7407 151.997 85.407 152.048 85.099 152.151C84.7983 152.254 84.527 152.397 84.285 152.58C84.0503 152.763 83.8523 152.983 83.691 153.24C83.537 153.489 83.4233 153.764 83.35 154.065C83.24 154.366 83.097 154.567 82.921 154.67C82.7523 154.773 82.503 154.795 82.173 154.736L80.93 154.516C81.04 153.768 81.2453 153.112 81.546 152.547C81.854 151.982 82.239 151.513 82.701 151.139C83.163 150.758 83.691 150.472 84.285 150.281C84.8863 150.083 85.5353 149.984 86.232 149.984C86.936 149.984 87.5813 150.09 88.168 150.303C88.762 150.508 89.2717 150.805 89.697 151.194C90.1297 151.575 90.467 152.041 90.709 152.591C90.951 153.141 91.072 153.761 91.072 154.45C91.072 155.037 90.984 155.579 90.808 156.078C90.6393 156.577 90.4083 157.053 90.115 157.508C89.8217 157.963 89.477 158.406 89.081 158.839C88.6923 159.264 88.2817 159.697 87.849 160.137L84.021 164.053C84.3363 163.965 84.6517 163.895 84.967 163.844C85.2897 163.793 85.594 163.767 85.88 163.767H90.533ZM96.7057 156.012C97.087 155.931 97.45 155.873 97.7947 155.836C98.1467 155.799 98.484 155.781 98.8067 155.781C99.6354 155.781 100.365 155.906 100.996 156.155C101.634 156.397 102.165 156.734 102.591 157.167C103.023 157.6 103.346 158.109 103.559 158.696C103.779 159.275 103.889 159.906 103.889 160.588C103.889 161.431 103.742 162.198 103.449 162.887C103.155 163.576 102.748 164.167 102.228 164.658C101.707 165.142 101.091 165.516 100.38 165.78C99.6757 166.044 98.913 166.176 98.0917 166.176C97.6077 166.176 97.1457 166.128 96.7057 166.033C96.273 165.938 95.866 165.809 95.4847 165.648C95.1034 165.479 94.7514 165.289 94.4287 165.076C94.106 164.856 93.8164 164.629 93.5597 164.394L94.2857 163.382C94.4397 163.162 94.645 163.052 94.9017 163.052C95.063 163.052 95.239 163.111 95.4297 163.228C95.6204 163.345 95.8404 163.474 96.0897 163.613C96.3464 163.745 96.647 163.87 96.9917 163.987C97.3364 164.104 97.747 164.163 98.2237 164.163C98.7444 164.163 99.21 164.079 99.6207 163.91C100.031 163.741 100.376 163.507 100.655 163.206C100.941 162.898 101.157 162.531 101.304 162.106C101.45 161.681 101.524 161.215 101.524 160.709C101.524 160.247 101.454 159.833 101.315 159.466C101.183 159.099 100.981 158.788 100.71 158.531C100.446 158.274 100.112 158.08 99.7087 157.948C99.3054 157.809 98.8397 157.739 98.3117 157.739C97.923 157.739 97.5234 157.772 97.1127 157.838C96.7094 157.904 96.2987 158.007 95.8807 158.146L94.4067 157.728L95.7047 150.16H103.372V151.183C103.372 151.52 103.265 151.795 103.053 152.008C102.84 152.221 102.484 152.327 101.986 152.327H97.3437L96.7057 156.012Z" fill="#595959"/>
<rect x="10" y="174" width="28" height="28" fill="#177B44"/>
<path d="M56.824 193.767C57.0807 193.767 57.2823 193.844 57.429 193.998C57.5757 194.145 57.649 194.335 57.649 194.57V196H46.935V195.197C46.935 195.036 46.968 194.867 47.034 194.691C47.1 194.515 47.2063 194.354 47.353 194.207L52.281 189.268C52.699 188.85 53.0693 188.45 53.392 188.069C53.722 187.688 54.0007 187.306 54.228 186.925C54.4627 186.544 54.6387 186.159 54.756 185.77C54.8807 185.374 54.943 184.96 54.943 184.527C54.943 184.109 54.877 183.742 54.745 183.427C54.6203 183.104 54.4443 182.84 54.217 182.635C53.997 182.422 53.7293 182.265 53.414 182.162C53.106 182.052 52.765 181.997 52.391 181.997C52.0317 181.997 51.698 182.048 51.39 182.151C51.0893 182.254 50.818 182.397 50.576 182.58C50.3413 182.763 50.1433 182.983 49.982 183.24C49.828 183.489 49.7143 183.764 49.641 184.065C49.531 184.366 49.388 184.567 49.212 184.67C49.0433 184.773 48.794 184.795 48.464 184.736L47.221 184.516C47.331 183.768 47.5363 183.112 47.837 182.547C48.145 181.982 48.53 181.513 48.992 181.139C49.454 180.758 49.982 180.472 50.576 180.281C51.1773 180.083 51.8263 179.984 52.523 179.984C53.227 179.984 53.8723 180.09 54.459 180.303C55.053 180.508 55.5627 180.805 55.988 181.194C56.4207 181.575 56.758 182.041 57 182.591C57.242 183.141 57.363 183.761 57.363 184.45C57.363 185.037 57.275 185.579 57.099 186.078C56.9303 186.577 56.6993 187.053 56.406 187.508C56.1127 187.963 55.768 188.406 55.372 188.839C54.9833 189.264 54.5727 189.697 54.14 190.137L50.312 194.053C50.6273 193.965 50.9427 193.895 51.258 193.844C51.5807 193.793 51.885 193.767 52.171 193.767H56.824ZM65.1197 194.218C65.5964 194.218 66.0327 194.141 66.4287 193.987C66.8247 193.826 67.1621 193.606 67.4407 193.327C67.7267 193.048 67.9467 192.718 68.1007 192.337C68.2547 191.956 68.3317 191.541 68.3317 191.094C68.3317 190.61 68.2547 190.177 68.1007 189.796C67.9541 189.407 67.7414 189.081 67.4627 188.817C67.1914 188.553 66.8614 188.351 66.4727 188.212C66.0914 188.065 65.6697 187.992 65.2077 187.992C64.7311 187.992 64.2984 188.073 63.9097 188.234C63.5284 188.395 63.2021 188.615 62.9307 188.894C62.6594 189.173 62.4504 189.499 62.3037 189.873C62.1571 190.247 62.0837 190.643 62.0837 191.061C62.0837 191.53 62.1497 191.959 62.2817 192.348C62.4137 192.737 62.6081 193.07 62.8647 193.349C63.1214 193.62 63.4367 193.833 63.8107 193.987C64.1921 194.141 64.6284 194.218 65.1197 194.218ZM64.2507 185.99C64.1334 186.137 64.0197 186.276 63.9097 186.408C63.8071 186.54 63.7044 186.672 63.6017 186.804C63.9391 186.613 64.3094 186.463 64.7127 186.353C65.1161 186.243 65.5487 186.188 66.0107 186.188C66.6267 186.188 67.2171 186.291 67.7817 186.496C68.3464 186.694 68.8414 186.995 69.2667 187.398C69.6994 187.794 70.0441 188.289 70.3007 188.883C70.5574 189.47 70.6857 190.148 70.6857 190.918C70.6857 191.651 70.5501 192.337 70.2787 192.975C70.0147 193.613 69.6407 194.17 69.1567 194.647C68.6727 195.116 68.0897 195.49 67.4077 195.769C66.7331 196.04 65.9851 196.176 65.1637 196.176C64.3424 196.176 63.6017 196.044 62.9417 195.78C62.2817 195.516 61.7171 195.146 61.2477 194.669C60.7857 194.185 60.4301 193.606 60.1807 192.931C59.9314 192.256 59.8067 191.505 59.8067 190.676C59.8067 189.957 59.9607 189.206 60.2687 188.421C60.5767 187.636 61.0534 186.811 61.6987 185.946L65.5927 180.721C65.7101 180.567 65.8787 180.435 66.0987 180.325C66.3261 180.215 66.5791 180.16 66.8577 180.16H68.9477L64.2507 185.99ZM72.8324 188.377H78.4094V190.379H72.8324V188.377ZM81.007 184.516C81.117 183.768 81.3223 183.112 81.623 182.547C81.931 181.982 82.316 181.513 82.778 181.139C83.24 180.758 83.768 180.472 84.362 180.281C84.9633 180.083 85.6123 179.984 86.309 179.984C87.013 179.984 87.651 180.087 88.223 180.292C88.8023 180.49 89.2973 180.769 89.708 181.128C90.126 181.487 90.445 181.916 90.665 182.415C90.8923 182.914 91.006 183.46 91.006 184.054C91.006 184.56 90.9437 185.007 90.819 185.396C90.7017 185.777 90.5293 186.115 90.302 186.408C90.082 186.701 89.8107 186.947 89.488 187.145C89.1653 187.343 88.8023 187.508 88.399 187.64C89.3817 187.926 90.1187 188.384 90.61 189.015C91.1013 189.638 91.347 190.423 91.347 191.369C91.347 192.132 91.204 192.81 90.918 193.404C90.632 193.998 90.2433 194.5 89.752 194.911C89.268 195.322 88.6997 195.637 88.047 195.857C87.4017 196.07 86.716 196.176 85.99 196.176C85.176 196.176 84.472 196.081 83.878 195.89C83.284 195.692 82.7707 195.413 82.338 195.054C81.9127 194.687 81.557 194.247 81.271 193.734C80.985 193.221 80.743 192.645 80.545 192.007L81.568 191.578C81.8393 191.461 82.096 191.428 82.338 191.479C82.5873 191.53 82.767 191.666 82.877 191.886C82.9943 192.121 83.1263 192.374 83.273 192.645C83.4197 192.909 83.6067 193.155 83.834 193.382C84.0687 193.602 84.3547 193.789 84.692 193.943C85.0367 194.09 85.4583 194.163 85.957 194.163C86.463 194.163 86.903 194.082 87.277 193.921C87.6583 193.752 87.9737 193.54 88.223 193.283C88.4797 193.019 88.6703 192.726 88.795 192.403C88.9197 192.08 88.982 191.761 88.982 191.446C88.982 191.05 88.9343 190.687 88.839 190.357C88.7437 190.02 88.5567 189.734 88.278 189.499C88.0067 189.264 87.618 189.081 87.112 188.949C86.6133 188.81 85.957 188.74 85.143 188.74V187.035C85.8103 187.028 86.3713 186.962 86.826 186.837C87.288 186.705 87.6547 186.529 87.926 186.309C88.2047 186.082 88.4027 185.81 88.52 185.495C88.6447 185.18 88.707 184.835 88.707 184.461C88.707 184.058 88.6447 183.702 88.52 183.394C88.3953 183.086 88.2193 182.829 87.992 182.624C87.772 182.411 87.508 182.254 87.2 182.151C86.892 182.048 86.551 181.997 86.177 181.997C85.8177 181.997 85.484 182.048 85.176 182.151C84.8753 182.254 84.604 182.397 84.362 182.58C84.1273 182.763 83.9293 182.983 83.768 183.24C83.6067 183.489 83.4893 183.764 83.416 184.065C83.3133 184.366 83.174 184.567 82.998 184.67C82.8293 184.773 82.58 184.795 82.25 184.736L81.007 184.516ZM104.626 188.08C104.626 189.466 104.475 190.665 104.175 191.677C103.881 192.689 103.474 193.529 102.954 194.196C102.433 194.863 101.821 195.358 101.117 195.681C100.413 196.004 99.6537 196.165 98.8397 196.165C98.0257 196.165 97.2667 196.004 96.5627 195.681C95.8587 195.358 95.2464 194.863 94.7257 194.196C94.2124 193.529 93.809 192.689 93.5157 191.677C93.2224 190.665 93.0757 189.466 93.0757 188.08C93.0757 186.694 93.2224 185.495 93.5157 184.483C93.809 183.464 94.2124 182.624 94.7257 181.964C95.2464 181.297 95.8587 180.802 96.5627 180.479C97.2667 180.149 98.0257 179.984 98.8397 179.984C99.6537 179.984 100.413 180.149 101.117 180.479C101.821 180.802 102.433 181.297 102.954 181.964C103.474 182.624 103.881 183.464 104.175 184.483C104.475 185.495 104.626 186.694 104.626 188.08ZM102.184 188.08C102.184 186.907 102.088 185.931 101.898 185.154C101.714 184.369 101.469 183.742 101.161 183.273C100.853 182.804 100.497 182.47 100.094 182.272C99.6904 182.074 99.2724 181.975 98.8397 181.975C98.3997 181.975 97.978 182.074 97.5747 182.272C97.1787 182.47 96.8267 182.804 96.5187 183.273C96.2107 183.742 95.965 184.369 95.7817 185.154C95.5984 185.931 95.5067 186.907 95.5067 188.08C95.5067 189.253 95.5984 190.232 95.7817 191.017C95.965 191.794 96.2107 192.418 96.5187 192.887C96.8267 193.356 97.1787 193.69 97.5747 193.888C97.978 194.086 98.3997 194.185 98.8397 194.185C99.2724 194.185 99.6904 194.086 100.094 193.888C100.497 193.69 100.853 193.356 101.161 192.887C101.469 192.418 101.714 191.794 101.898 191.017C102.088 190.232 102.184 189.253 102.184 188.08Z" fill="#595959"/>
<rect x="10" y="204" width="28" height="28" fill="#730000"/>
<path d="M57.044 218.102V219.081L48.42 223.569V221.875C48.42 221.736 48.453 221.611 48.519 221.501C48.585 221.391 48.6987 221.296 48.86 221.215L53.304 218.971C53.458 218.89 53.623 218.821 53.799 218.762C53.9823 218.696 54.1693 218.641 54.36 218.597C54.1693 218.546 53.9823 218.491 53.799 218.432C53.623 218.373 53.458 218.304 53.304 218.223L48.86 215.968C48.6987 215.887 48.585 215.792 48.519 215.682C48.453 215.572 48.42 215.451 48.42 215.319V213.614L57.044 218.102ZM65.5382 214.516C65.6482 213.768 65.8536 213.112 66.1542 212.547C66.4622 211.982 66.8472 211.513 67.3092 211.139C67.7712 210.758 68.2992 210.472 68.8932 210.281C69.4946 210.083 70.1436 209.984 70.8402 209.984C71.5442 209.984 72.1822 210.087 72.7542 210.292C73.3336 210.49 73.8286 210.769 74.2392 211.128C74.6572 211.487 74.9762 211.916 75.1962 212.415C75.4236 212.914 75.5372 213.46 75.5372 214.054C75.5372 214.56 75.4749 215.007 75.3502 215.396C75.2329 215.777 75.0606 216.115 74.8332 216.408C74.6132 216.701 74.3419 216.947 74.0192 217.145C73.6966 217.343 73.3336 217.508 72.9302 217.64C73.9129 217.926 74.6499 218.384 75.1412 219.015C75.6326 219.638 75.8782 220.423 75.8782 221.369C75.8782 222.132 75.7352 222.81 75.4492 223.404C75.1632 223.998 74.7746 224.5 74.2832 224.911C73.7992 225.322 73.2309 225.637 72.5782 225.857C71.9329 226.07 71.2472 226.176 70.5212 226.176C69.7072 226.176 69.0032 226.081 68.4092 225.89C67.8152 225.692 67.3019 225.413 66.8692 225.054C66.4439 224.687 66.0882 224.247 65.8022 223.734C65.5162 223.221 65.2742 222.645 65.0762 222.007L66.0992 221.578C66.3706 221.461 66.6272 221.428 66.8692 221.479C67.1186 221.53 67.2982 221.666 67.4082 221.886C67.5256 222.121 67.6576 222.374 67.8042 222.645C67.9509 222.909 68.1379 223.155 68.3652 223.382C68.5999 223.602 68.8859 223.789 69.2232 223.943C69.5679 224.09 69.9896 224.163 70.4882 224.163C70.9942 224.163 71.4342 224.082 71.8082 223.921C72.1896 223.752 72.5049 223.54 72.7542 223.283C73.0109 223.019 73.2016 222.726 73.3262 222.403C73.4509 222.08 73.5132 221.761 73.5132 221.446C73.5132 221.05 73.4656 220.687 73.3702 220.357C73.2749 220.02 73.0879 219.734 72.8092 219.499C72.5379 219.264 72.1492 219.081 71.6432 218.949C71.1446 218.81 70.4882 218.74 69.6742 218.74V217.035C70.3416 217.028 70.9026 216.962 71.3572 216.837C71.8192 216.705 72.1859 216.529 72.4572 216.309C72.7359 216.082 72.9339 215.81 73.0512 215.495C73.1759 215.18 73.2382 214.835 73.2382 214.461C73.2382 214.058 73.1759 213.702 73.0512 213.394C72.9266 213.086 72.7506 212.829 72.5232 212.624C72.3032 212.411 72.0392 212.254 71.7312 212.151C71.4232 212.048 71.0822 211.997 70.7082 211.997C70.3489 211.997 70.0152 212.048 69.7072 212.151C69.4066 212.254 69.1352 212.397 68.8932 212.58C68.6586 212.763 68.4606 212.983 68.2992 213.24C68.1379 213.489 68.0206 213.764 67.9472 214.065C67.8446 214.366 67.7052 214.567 67.5292 214.67C67.3606 214.773 67.1112 214.795 66.7812 214.736L65.5382 214.516ZM89.157 218.08C89.157 219.466 89.0066 220.665 88.706 221.677C88.4126 222.689 88.0056 223.529 87.485 224.196C86.9643 224.863 86.352 225.358 85.648 225.681C84.944 226.004 84.185 226.165 83.371 226.165C82.557 226.165 81.798 226.004 81.094 225.681C80.39 225.358 79.7776 224.863 79.257 224.196C78.7436 223.529 78.3403 222.689 78.047 221.677C77.7536 220.665 77.607 219.466 77.607 218.08C77.607 216.694 77.7536 215.495 78.047 214.483C78.3403 213.464 78.7436 212.624 79.257 211.964C79.7776 211.297 80.39 210.802 81.094 210.479C81.798 210.149 82.557 209.984 83.371 209.984C84.185 209.984 84.944 210.149 85.648 210.479C86.352 210.802 86.9643 211.297 87.485 211.964C88.0056 212.624 88.4126 213.464 88.706 214.483C89.0066 215.495 89.157 216.694 89.157 218.08ZM86.715 218.08C86.715 216.907 86.6196 215.931 86.429 215.154C86.2456 214.369 86 213.742 85.692 213.273C85.384 212.804 85.0283 212.47 84.625 212.272C84.2216 212.074 83.8036 211.975 83.371 211.975C82.931 211.975 82.5093 212.074 82.106 212.272C81.71 212.47 81.358 212.804 81.05 213.273C80.742 213.742 80.4963 214.369 80.313 215.154C80.1296 215.931 80.038 216.907 80.038 218.08C80.038 219.253 80.1296 220.232 80.313 221.017C80.4963 221.794 80.742 222.418 81.05 222.887C81.358 223.356 81.71 223.69 82.106 223.888C82.5093 224.086 82.931 224.185 83.371 224.185C83.8036 224.185 84.2216 224.086 84.625 223.888C85.0283 223.69 85.384 223.356 85.692 222.887C86 222.418 86.2456 221.794 86.429 221.017C86.6196 220.232 86.715 219.253 86.715 218.08Z" fill="#595959"/>
</svg>
