<svg width="151" height="96" viewBox="0 0 151 96" fill="none" xmlns="http://www.w3.org/2000/svg">
<path d="M131.584 87.8H19.084C16.5215 87.8 14.3965 86.44 14.3965 84.8C14.3965 83.16 16.5215 81.8 19.084 81.8H131.584C134.146 81.8 136.271 83.16 136.271 84.8C136.271 86.44 134.146 87.8 131.584 87.8Z" fill="#595959"/>
<path d="M35.334 33.52H25.334C21.8965 33.52 19.084 35.32 19.084 37.52V72C19.084 74.2 21.8965 76 25.334 76H35.334C38.7715 76 41.584 74.2 41.584 72V37.52C41.584 35.28 38.7715 33.52 35.334 33.52Z" fill="#52736E"/>
<path d="M125.334 20.76H115.334C111.896 20.76 109.084 22.56 109.084 24.76V72C109.084 74.2 111.896 76 115.334 76H125.334C128.771 76 131.584 74.2 131.584 72V24.76C131.584 22.56 128.771 20.76 125.334 20.76Z" fill="#1B3431"/>
<path d="M80.334 8H70.334C66.8965 8 64.084 9.8 64.084 12V71.9999C64.084 74.1999 66.8965 75.9999 70.334 75.9999H80.334C83.7715 75.9999 86.584 74.1999 86.584 71.9999V12C86.584 9.8 83.7715 8 80.334 8Z" fill="#FFD682"/>
</svg>
