<svg width="151" height="96" viewBox="0 0 151 96" fill="none" xmlns="http://www.w3.org/2000/svg">
<path d="M150.666 0.113756L114.667 33.5992H0.666016L36.7922 0H101.466L150.666 0.113756Z" fill="#FFC727"/>
<path opacity="0.6" d="M150.666 0.113756L114.667 33.5992H0.666016L36.7922 0H101.466L150.666 0.113756Z" fill="black"/>
<path d="M114.668 96H150.666V0.113525L114.668 33.5964V96Z" fill="#FFC727"/>
<path opacity="0.4" d="M114.668 96H150.666V0.113525L114.668 33.5964V96Z" fill="white"/>
<path d="M0.666809 95.9995L114.668 95.9995V33.5959L0.666809 33.5959V95.9995Z" fill="#FFC727"/>
<path opacity="0.8" d="M0.666809 95.9995L114.668 95.9995V33.5959L0.666809 33.5959V95.9995Z" fill="white"/>
<path d="M12.2996 54.5282H21.0605V42.2395H12.2996L12.2996 54.5282Z" fill="#263238"/>
<path d="M28.6934 54.5282H37.4551V42.2395H28.6934V54.5282Z" fill="#263238"/>
<path d="M45.0888 54.5282H53.8496V42.2395H45.0888V54.5282Z" fill="#263238"/>
<path d="M61.4852 54.5282H70.2461V42.2395H61.4852V54.5282Z" fill="#263238"/>
<path d="M77.8797 54.5282H86.6406V42.2395H77.8797V54.5282Z" fill="#263238"/>
<path d="M94.2743 54.5282H103.035V42.2395H94.2743V54.5282Z" fill="#263238"/>
<path d="M12.2977 78.0511H21.0586V65.7624H12.2977L12.2977 78.0511Z" fill="#263238"/>
<path d="M28.6934 78.0511H37.4551V65.7624H28.6934V78.0511Z" fill="#263238"/>
<path d="M45.0888 78.0511H53.8496V65.7624H45.0888V78.0511Z" fill="#263238"/>
<path d="M61.4852 78.0511H70.2461V65.7624H61.4852V78.0511Z" fill="#263238"/>
<path d="M77.8797 78.0511H86.6406V65.7624H77.8797V78.0511Z" fill="#263238"/>
<path d="M94.2743 78.0511H103.035V65.7624H94.2743V78.0511Z" fill="#263238"/>
<path d="M57.9709 28.2295L19.3075 28.2235L19.0625 27.2333L42.6189 5.36865L81.4275 5.3747L81.5273 6.36572L57.9709 28.2295Z" fill="#C7C7C7"/>
<path d="M57.8711 27.2393L19.0625 27.2333L42.6189 5.36865L81.4275 5.3747L57.8711 27.2393Z" fill="#EBEBEB"/>
<path d="M76.6366 7.54666L71.6173 12.2088L68.9523 14.6855L64.5703 18.7547L63.9058 19.3778L57.7789 25.068L23.8535 25.062L32.9418 16.6167L33.6094 16.0014L37.3714 12.5035L40.0364 10.026L41.4403 8.72038L42.1079 8.10422L42.7112 7.5415L76.6366 7.54666Z" fill="#455A64"/>
<g opacity="0.2">
<path d="M41.068 25.064H39.8826L32.9414 16.6161L33.609 16.0009L41.068 25.064Z" fill="white"/>
<path d="M64.5694 18.7544L63.9049 19.3774L54.1777 7.54285H55.3488L64.5694 18.7544Z" fill="white"/>
<path d="M56.055 25.0667H54.884L41.4395 8.71992L42.107 8.10376L56.055 25.0667Z" fill="white"/>
<path d="M52.4056 25.0662L47.7 25.0654L37.3711 12.5026L40.0361 10.025L52.4056 25.0662Z" fill="white"/>
<path d="M71.6177 12.2083L68.9527 14.685L63.0859 7.54443L67.7846 7.54528L71.6177 12.2083Z" fill="white"/>
</g>
<path d="M32.9866 26.5197L32.6191 26.094L54.2083 6.05542L54.5765 6.48028L32.9866 26.5197Z" fill="#EBEBEB"/>
<path d="M45.6143 26.5211L45.2461 26.0954L66.8361 6.05688L67.2035 6.48258L45.6143 26.5211Z" fill="#EBEBEB"/>
<path d="M67.4859 16.667L31.8496 16.661L32.1906 15.9104L67.8276 15.9156L67.4859 16.667Z" fill="#EBEBEB"/>
<path d="M108.715 28.2296L70.0516 28.2236L69.8066 27.2334L93.3631 5.36877L132.172 5.37482L132.271 6.36584L108.715 28.2296Z" fill="#C7C7C7"/>
<path d="M108.615 27.2394L69.8066 27.2334L93.3631 5.36877L132.172 5.37482L108.615 27.2394Z" fill="#EBEBEB"/>
<path d="M127.381 7.54617L122.361 12.2083L119.696 14.685L115.314 18.7543L114.65 19.3773L108.523 25.0675L74.5977 25.0615L83.6859 16.6162L84.3535 16.0009L88.1155 12.503L90.7805 10.0255L92.1844 8.71989L92.852 8.10373L93.4553 7.54102L127.381 7.54617Z" fill="#455A64"/>
<g opacity="0.2">
<path d="M91.8121 25.0641H90.6266L83.6855 16.6163L84.3531 16.001L91.8121 25.0641Z" fill="white"/>
<path d="M115.314 18.7545L114.649 19.3775L104.922 7.54297H106.093L115.314 18.7545Z" fill="white"/>
<path d="M106.799 25.0673H105.628L92.1836 8.72053L92.8512 8.10437L106.799 25.0673Z" fill="white"/>
<path d="M103.15 25.0668L98.4441 25.066L88.1152 12.5032L90.7802 10.0256L103.15 25.0668Z" fill="white"/>
<path d="M122.362 12.2089L119.697 14.6856L113.83 7.54504L118.529 7.54589L122.362 12.2089Z" fill="white"/>
</g>
<path d="M83.7307 26.5198L83.3633 26.0941L104.953 6.05554L105.321 6.4804L83.7307 26.5198Z" fill="#EBEBEB"/>
<path d="M96.3584 26.5213L95.9902 26.0955L117.58 6.05701L117.948 6.48271L96.3584 26.5213Z" fill="#EBEBEB"/>
<path d="M118.23 16.6672L82.5938 16.6611L82.9347 15.9105L118.572 15.9157L118.23 16.6672Z" fill="#EBEBEB"/>
</svg>
