<svg width="268" height="92" viewBox="0 0 268 92" fill="none" xmlns="http://www.w3.org/2000/svg">
<path d="M28.0016 65.6026C28.6875 65.6027 29.3495 65.8545 29.8621 66.3103C30.3747 66.766 30.7022 67.394 30.7824 68.0752L30.802 68.4028V71.2029C30.8012 71.9166 30.5279 72.6031 30.0379 73.1221C29.5479 73.6411 28.8782 73.9534 28.1657 73.9952C27.4531 74.037 26.7515 73.8052 26.2041 73.3471C25.6568 72.889 25.305 72.2393 25.2207 71.5306L25.2011 71.2029V68.4028C25.2011 67.6601 25.4961 66.9479 26.0213 66.4228C26.5465 65.8977 27.2588 65.6026 28.0016 65.6026ZM45.6809 59.7503L45.9441 59.9827L47.9045 61.9428C48.4067 62.4467 48.6983 63.1229 48.72 63.834C48.7418 64.5451 48.492 65.2378 48.0214 65.7714C47.5508 66.305 46.8948 66.6396 46.1865 66.707C45.4781 66.7745 44.7707 66.5698 44.2079 66.1347L43.9446 65.9023L41.9843 63.9421C41.501 63.4598 41.2107 62.8175 41.1678 62.1361C41.125 61.4546 41.3326 60.781 41.7517 60.242C42.1708 59.7029 42.7724 59.3355 43.4434 59.2088C44.1143 59.0822 44.8085 59.2051 45.3953 59.5543L45.6809 59.7503ZM14.0188 59.9827C14.501 60.4649 14.7907 61.1064 14.8335 61.7869C14.8763 62.4674 14.6692 63.1402 14.2513 63.6789L14.0188 63.9421L12.0585 65.9023C11.5545 66.4045 10.8783 66.696 10.1671 66.7177C9.45594 66.7395 8.76316 66.4897 8.22949 66.0192C7.69582 65.5486 7.36127 64.8927 7.2938 64.1844C7.22632 63.4762 7.43098 62.7689 7.86621 62.2061L8.09865 61.9428L10.059 59.9827C10.5841 59.4578 11.2963 59.1629 12.0389 59.1629C12.7815 59.1629 13.4937 59.4578 14.0188 59.9827ZM5.59783 43.2014C6.31161 43.2022 6.99815 43.4755 7.51718 43.9654C8.03621 44.4554 8.34854 45.125 8.39038 45.8374C8.43221 46.5499 8.20037 47.2515 7.74224 47.7988C7.28412 48.3461 6.63427 48.6978 5.92548 48.7821L5.59783 48.8017H2.79736C2.08358 48.8009 1.39704 48.5276 0.878013 48.0377C0.358986 47.5477 0.0466478 46.8781 0.0048169 46.1657C-0.037014 45.4532 0.194819 44.7516 0.652948 44.2043C1.11108 43.657 1.76092 43.3053 2.46971 43.221L2.79736 43.2014H5.59783ZM53.2058 43.2014C53.9195 43.2022 54.6061 43.4755 55.1251 43.9654C55.6441 44.4554 55.9565 45.125 55.9983 45.8374C56.0401 46.5499 55.8083 47.2515 55.3502 47.7988C54.892 48.3461 54.2422 48.6978 53.5334 48.7821L53.2058 48.8017H50.4053C49.6915 48.8009 49.005 48.5276 48.4859 48.0377C47.9669 47.5477 47.6546 46.8781 47.6127 46.1657C47.5709 45.4532 47.8027 44.7516 48.2609 44.2043C48.719 43.657 49.3688 43.3053 50.0776 43.221L50.4053 43.2014H53.2058ZM11.7953 25.8684L12.0585 26.1008L14.0188 28.061C14.5211 28.5649 14.8127 29.241 14.8344 29.9521C14.8561 30.6632 14.6063 31.3559 14.1358 31.8895C13.6652 32.4232 13.0091 32.7577 12.3008 32.8251C11.5925 32.8926 10.8851 32.688 10.3222 32.2528L10.059 32.0204L8.09865 30.0603C7.61722 29.5777 7.32833 28.9362 7.28614 28.2559C7.24394 27.5757 7.45135 26.9034 7.86946 26.3651C8.28758 25.8268 8.8877 25.4594 9.55732 25.3319C10.2269 25.2044 10.9201 25.3255 11.5068 25.6724L11.7953 25.8684ZM47.9045 26.1008C48.3866 26.583 48.6763 27.2245 48.7191 27.905C48.7619 28.5856 48.5549 29.2583 48.1369 29.7971L47.9045 30.0603L45.9441 32.0204C45.4402 32.5226 44.7639 32.8141 44.0528 32.8359C43.3416 32.8576 42.6488 32.6078 42.1151 32.1373C41.5815 31.6668 41.2469 31.0108 41.1794 30.3026C41.112 29.5943 41.3166 28.887 41.7518 28.3242L41.9843 28.061L43.9446 26.1008C44.4698 25.5759 45.182 25.281 45.9245 25.281C46.6671 25.281 47.3793 25.5759 47.9045 26.1008ZM28.0016 18C28.6875 18.0001 29.3495 18.2519 29.8621 18.7076C30.3747 19.1634 30.7022 19.7914 30.7824 20.4725L30.802 20.8002V23.6003C30.8012 24.314 30.5279 25.0005 30.0379 25.5194C29.5479 26.0384 28.8782 26.3507 28.1657 26.3925C27.4531 26.4344 26.7515 26.2026 26.2041 25.7445C25.6568 25.2864 25.305 24.6366 25.2207 23.9279L25.2011 23.6003V20.8002C25.2011 20.0575 25.4961 19.3453 26.0213 18.8201C26.5465 18.295 27.2588 18 28.0016 18ZM28.0016 32.0008C30.7451 32.0006 33.4283 32.8064 35.7178 34.3179C38.0073 35.8295 39.8022 37.9802 40.8797 40.5031C41.9571 43.0259 42.2697 45.8097 41.7784 48.5086C41.2871 51.2075 40.0137 53.7026 38.1164 55.6841C36.219 57.6656 33.7813 59.046 31.106 59.6541C28.4307 60.2621 25.6356 60.0709 23.0681 59.1042C20.5005 58.1375 18.2735 56.4379 16.6638 54.2165C15.054 51.9952 14.1323 49.3498 14.0132 46.6092L13.9992 46.0016L14.0132 45.3939C14.1698 41.7894 15.712 38.3845 18.3182 35.8892C20.9243 33.394 24.3933 32.001 28.0016 32.0008Z" fill="#FFD682"/>
<path d="M87.4199 65.864C85.5212 65.864 83.7399 65.736 82.0759 65.48C80.4332 65.2453 78.9292 64.936 77.5639 64.552C76.2199 64.1467 75.0359 63.7307 74.0119 63.304L73.1479 54.088C74.8332 54.8773 76.8279 55.6133 79.1319 56.296C81.4359 56.9573 83.8786 57.288 86.4599 57.288C88.9559 57.288 90.7266 56.9787 91.7719 56.36C92.8386 55.72 93.3719 54.728 93.3719 53.384V53.16C93.3719 52.264 93.1266 51.5387 92.6359 50.984C92.1666 50.408 91.3666 49.8853 90.2359 49.416C89.1266 48.9253 87.6226 48.4027 85.7239 47.848C82.8652 46.9947 80.4759 46.0453 78.5559 45C76.6572 43.9547 75.2386 42.6533 74.2999 41.096C73.3612 39.5173 72.8919 37.5227 72.8919 35.112V34.696C72.8919 30.984 74.1506 28.1467 76.6679 26.184C79.2066 24.2213 82.9292 23.24 87.8359 23.24C90.7799 23.24 93.3186 23.496 95.4519 24.008C97.6066 24.52 99.4306 25.128 100.924 25.832L101.788 34.408C100.145 33.6187 98.2786 32.9573 96.1879 32.424C94.1186 31.8693 91.8999 31.592 89.5319 31.592C87.8679 31.592 86.5559 31.7307 85.5959 32.008C84.6572 32.2853 83.9959 32.6907 83.6119 33.224C83.2279 33.736 83.0359 34.3653 83.0359 35.112V35.24C83.0359 36.008 83.2492 36.68 83.6759 37.256C84.1239 37.832 84.9132 38.3867 86.0439 38.92C87.1959 39.4533 88.8279 40.0293 90.9399 40.648C93.7772 41.48 96.1239 42.376 97.9799 43.336C99.8572 44.2747 101.255 45.5013 102.172 47.016C103.111 48.5093 103.58 50.504 103.58 53V53.512C103.58 57.6293 102.247 60.7227 99.5799 62.792C96.9132 64.84 92.8599 65.864 87.4199 65.864ZM124.07 65.896C118.993 65.896 115.153 64.6373 112.55 62.12C109.969 59.5813 108.678 56.0187 108.678 51.432V47.304C108.678 42.6533 109.98 39.048 112.582 36.488C115.185 33.9067 119.014 32.616 124.07 32.616C129.126 32.616 132.945 33.9067 135.526 36.488C138.129 39.048 139.43 42.6533 139.43 47.304V51.432C139.43 56.0187 138.14 59.5813 135.558 62.12C132.977 64.6373 129.148 65.896 124.07 65.896ZM124.07 58.184C125.884 58.184 127.26 57.64 128.198 56.552C129.158 55.4427 129.638 53.8747 129.638 51.848V46.888C129.638 44.7547 129.158 43.1333 128.198 42.024C127.26 40.9147 125.884 40.36 124.07 40.36C122.257 40.36 120.87 40.9147 119.91 42.024C118.972 43.1333 118.502 44.7547 118.502 46.888V51.848C118.502 53.8747 118.972 55.4427 119.91 56.552C120.87 57.64 122.257 58.184 124.07 58.184ZM155.592 65H145.8V22.728H155.592V65ZM190.728 65H181.096L181.384 57.128L181.16 56.648V46.824L181.096 45.544C181.096 43.7947 180.584 42.504 179.56 41.672C178.536 40.84 176.819 40.424 174.408 40.424C172.296 40.424 170.291 40.6907 168.392 41.224C166.494 41.7573 164.702 42.3653 163.016 43.048L163.848 35.464C164.851 34.9947 165.971 34.5573 167.208 34.152C168.467 33.7253 169.854 33.384 171.368 33.128C172.883 32.872 174.504 32.744 176.232 32.744C178.984 32.744 181.288 33.064 183.144 33.704C185 34.344 186.483 35.2507 187.592 36.424C188.702 37.5973 189.502 39.0053 189.992 40.648C190.483 42.2693 190.728 44.0613 190.728 46.024V65ZM171.08 65.736C167.944 65.736 165.566 64.9467 163.944 63.368C162.323 61.7893 161.512 59.5387 161.512 56.616V55.752C161.512 52.6587 162.462 50.376 164.36 48.904C166.28 47.4107 169.32 46.3973 173.48 45.864L181.928 44.744L182.504 50.632L175.016 51.72C173.502 51.912 172.435 52.264 171.816 52.776C171.198 53.288 170.888 54.0453 170.888 55.048V55.272C170.888 56.232 171.198 57 171.816 57.576C172.435 58.1307 173.427 58.408 174.792 58.408C175.987 58.408 177.011 58.2267 177.864 57.864C178.739 57.5013 179.454 57.032 180.008 56.456C180.563 55.8587 180.979 55.1973 181.256 54.472L182.632 58.44H181.032C180.691 59.8053 180.158 61.0427 179.432 62.152C178.728 63.2613 177.704 64.136 176.36 64.776C175.016 65.416 173.256 65.736 171.08 65.736ZM207.368 47.336L204.68 41.384H206.984C207.496 38.7813 208.488 36.744 209.96 35.272C211.453 33.7787 213.555 33.032 216.264 33.032C216.733 33.032 217.16 33.064 217.544 33.128C217.949 33.192 218.333 33.2667 218.696 33.352L219.176 43.24C218.728 43.112 218.205 43.0267 217.608 42.984C217.011 42.92 216.403 42.888 215.784 42.888C213.693 42.888 211.933 43.2827 210.504 44.072C209.075 44.84 208.029 45.928 207.368 47.336ZM207.56 65H197.768V33.544H206.984L206.568 43.592L207.56 43.72V65ZM233.904 65H224.112V33.544H233.904V65ZM229.008 30.568C227.174 30.568 225.84 30.152 225.008 29.32C224.176 28.4667 223.76 27.3253 223.76 25.896V25.672C223.76 24.2427 224.176 23.112 225.008 22.28C225.84 21.448 227.174 21.032 229.008 21.032C230.8 21.032 232.112 21.448 232.944 22.28C233.798 23.112 234.224 24.2427 234.224 25.672V25.896C234.224 27.3467 233.798 28.488 232.944 29.32C232.112 30.152 230.8 30.568 229.008 30.568ZM252.53 65.768C250.034 65.768 247.784 65.544 245.778 65.096C243.773 64.6693 242.056 64.168 240.626 63.592L239.794 55.368C241.437 56.0507 243.25 56.6693 245.234 57.224C247.24 57.7573 249.405 58.024 251.73 58.024C253.586 58.024 254.898 57.832 255.666 57.448C256.456 57.0427 256.85 56.424 256.85 55.592V55.464C256.85 54.888 256.648 54.4187 256.242 54.056C255.858 53.672 255.176 53.3307 254.194 53.032C253.234 52.7333 251.88 52.3813 250.13 51.976C247.506 51.3573 245.426 50.632 243.89 49.8C242.354 48.9467 241.256 47.912 240.594 46.696C239.954 45.4587 239.634 43.9973 239.634 42.312V42.056C239.634 38.9413 240.744 36.616 242.962 35.08C245.181 33.5227 248.445 32.744 252.754 32.744C255.186 32.744 257.373 32.968 259.314 33.416C261.256 33.864 262.888 34.3973 264.21 35.016L265.042 42.664C263.506 41.9813 261.789 41.416 259.89 40.968C258.013 40.52 256.04 40.296 253.97 40.296C252.712 40.296 251.72 40.3813 250.994 40.552C250.29 40.7227 249.789 40.968 249.49 41.288C249.213 41.608 249.074 42.0027 249.074 42.472V42.568C249.074 43.08 249.245 43.5173 249.586 43.88C249.928 44.2427 250.546 44.584 251.442 44.904C252.36 45.224 253.672 45.5867 255.378 45.992C258.024 46.568 260.157 47.2293 261.778 47.976C263.4 48.7013 264.584 49.6507 265.33 50.824C266.077 51.976 266.45 53.512 266.45 55.432V55.72C266.45 59.112 265.309 61.64 263.026 63.304C260.744 64.9467 257.245 65.768 252.53 65.768Z" fill="white"/>
</svg>
