<svg width="173" height="96" viewBox="0 0 173 96" fill="none" xmlns="http://www.w3.org/2000/svg">
<path d="M8.65325 76.3198H5.5332V95.9871H8.65325V76.3198Z" fill="#D9D9D9"/>
<path d="M11.6434 92.2817H2.54492V95.8933H11.6434V92.2817Z" fill="#D9D9D9"/>
<path d="M52.9793 76.3198H49.8594V95.9871H52.9793V76.3198Z" fill="#D9D9D9"/>
<path d="M55.9695 92.2817H46.8711V95.8933H55.9695V92.2817Z" fill="#D9D9D9"/>
<path d="M90.1279 9.22937H87.0078V96.0003H90.1279V9.22937Z" fill="#D9D9D9"/>
<path d="M93.118 92.2816H84.0195V95.8931H93.118V92.2816Z" fill="#D9D9D9"/>
<path d="M58.4964 80.1709L0 80.1494V73.7252L35.2271 0L93.264 0.0216474V7.64547L58.4964 80.1709Z" fill="black"/>
<path d="M58.0368 73.7469L0 73.7252L35.2271 0L93.264 0.0216474L58.0368 73.7469Z" fill="#D9D9D9"/>
<path d="M86.0989 7.33873L78.5928 23.0552L74.6077 31.41L68.0545 45.1281L67.0609 47.2283L57.8989 66.4145L7.16406 66.396L20.7552 37.9205L21.7537 35.8449L27.3804 24.0514L31.3657 15.6966L33.4645 11.2925L34.4629 9.21688L35.3653 7.32019L86.0989 7.33873Z" fill="#455A64"/>
<g opacity="0.2">
<path d="M32.9063 66.4155H31.1351L20.7539 37.9308L21.7523 35.8552L32.9063 66.4155Z" fill="white"/>
<path d="M68.0537 45.1251L67.0601 47.2254L52.5137 7.32336H54.2645L68.0537 45.1251Z" fill="white"/>
<path d="M55.3209 66.4271H53.5689L33.4629 11.3051L34.4613 9.22949L55.3209 66.4271Z" fill="white"/>
<path d="M49.8621 66.4184H42.8253L27.3789 24.0584L31.3642 15.7036L49.8621 66.4184Z" fill="white"/>
<path d="M78.5923 23.0506L74.6072 31.4054L65.834 7.32483L72.86 7.32794L78.5923 23.0506Z" fill="white"/>
</g>
<path d="M20.823 71.3098L20.2734 69.8757L52.5595 2.3064L53.1091 3.74049L20.823 71.3098Z" fill="#D9D9D9"/>
<path d="M39.7059 71.3115L39.1562 69.8774L71.4423 2.31116L71.9918 3.74224L39.7059 71.3115Z" fill="#D9D9D9"/>
<path d="M72.4163 38.0897L19.123 38.0713L19.633 35.5392L72.9262 35.5577L72.4163 38.0897Z" fill="#D9D9D9"/>
<path d="M88.3876 76.3198H85.2676V95.9871H88.3876V76.3198Z" fill="#D9D9D9"/>
<path d="M91.3757 92.2817H82.2773V95.8933H91.3757V92.2817Z" fill="#D9D9D9"/>
<path d="M132.714 76.3198H129.594V95.9871H132.714V76.3198Z" fill="#D9D9D9"/>
<path d="M135.702 92.2817H126.604V95.8933H135.702V92.2817Z" fill="#D9D9D9"/>
<path d="M169.862 9.22937H166.742V96.0003H169.862V9.22937Z" fill="#D9D9D9"/>
<path d="M172.85 92.2816H163.752V95.8931H172.85V92.2816Z" fill="#D9D9D9"/>
<path d="M138.229 80.1709L79.7324 80.1494V73.7252L114.961 0L172.998 0.0216474V7.64547L138.229 80.1709Z" fill="black"/>
<path d="M137.769 73.7469L79.7324 73.7252L114.961 0L172.998 0.0216474L137.769 73.7469Z" fill="#D9D9D9"/>
<path d="M165.833 7.33873L158.326 23.0552L154.342 31.41L147.788 45.1281L146.794 47.2283L137.632 66.4145L86.8984 66.396L100.488 37.9205L101.488 35.8449L107.114 24.0514L111.099 15.6966L113.199 11.2925L114.197 9.21688L115.1 7.32019L165.833 7.33873Z" fill="#455A64"/>
<g opacity="0.2">
<path d="M112.642 66.4155H110.869L100.488 37.9308L101.488 35.8552L112.642 66.4155Z" fill="white"/>
<path d="M147.788 45.1251L146.794 47.2254L132.248 7.32336H134L147.788 45.1251Z" fill="white"/>
<path d="M135.056 66.4271H133.304L113.199 11.3051L114.198 9.22949L135.056 66.4271Z" fill="white"/>
<path d="M129.597 66.4184H122.56L107.113 24.0584L111.098 15.7036L129.597 66.4184Z" fill="white"/>
<path d="M158.325 23.0506L154.341 31.4054L145.566 7.32483L152.594 7.32794L158.325 23.0506Z" fill="white"/>
</g>
<path d="M100.559 71.3098L100.008 69.8757L132.294 2.3064L132.845 3.74049L100.559 71.3098Z" fill="#D9D9D9"/>
<path d="M119.441 71.3115L118.891 69.8774L151.177 2.31116L151.727 3.74224L119.441 71.3115Z" fill="#D9D9D9"/>
<path d="M152.149 38.0897L98.8574 38.0713L99.3674 35.5392L152.659 35.5577L152.149 38.0897Z" fill="#D9D9D9"/>
</svg>
